<mxfile host="app.diagrams.net" modified="2023-11-15T17:57:44.055Z" agent="Mozilla/5.0 (X11; Linux x86_64) AppleWebKit/537.36 (KHTML, like Gecko) Chrome/119.0.0.0 Safari/537.36" version="22.1.1" etag="AHIMc7jNuvNtP6vbyOqi" type="github">
  <diagram name="PÃ¡gina-1" id="LmuIaoj26Ij7rix88R88">
    <mxGraphModel>
      <root>
        <mxCell id="0" />
        <mxCell id="1" parent="0" />
      </root>
    </mxGraphModel>
  </diagram>
</mxfile>
